<?xml version="1.0" encoding="utf-8"?>
<svg version="1.1" id="Layer_1" xmlns="http://www.w3.org/2000/svg" x="0px" y="0px" viewBox="0 0 180 40" style="enable-background:new 0 0 180 40;" xml:space="preserve">
    <g>
        <path fill="#fff" d="M44.7,39.5V0h6.8v39.5H44.7z"/>
        <path fill="#fff" d="M58.7,39.5V10.1h5.9v3.5h0.1c1.5-2.5,4-4,7-4h1.2V16c-1.1-0.2-2.2-0.7-3.9-0.7c-2.1,0-4.2,1.3-4.2,3.9v20.2H58.7z"/>
        <path fill="#fff" d="M76.8,5.6V0H83v5.6H76.8z M76.8,39.5V10.1H83v29.4H76.8z"/>
        <path fill="#fff" d="M101.5,39.5v-3.1h-0.1c-2,2.5-3.5,3.6-6.6,3.6c-3.8,0-6.2-2.8-6.2-8.2V17.7c0-5.4,2.4-8.2,6.2-8.2c2.7,0,3.9,1.1,6.3,3.1V0 h6.1v39.5H101.5z M101.2,16.1c-1.2-0.9-2.3-1.5-3.5-1.5c-1.6,0-3,0.9-3,4.8v10.9c0,3.8,1.3,4.8,3,4.8c1.2,0,2.3-0.7,3.5-1.5V16.1z"/>
        <path fill="#fff" d="M113.2,5.6V0h6.1v5.6H113.2z M113.2,39.5V10.1h6.1v29.4H113.2z"/>
        <path fill="#fff" d="M143.7,10.1v29.4h-5.8v-3c-2.6,2.2-3.9,3.5-7.4,3.5c-3.3,0-5.1-2.3-5.1-6.2V10.1h6.1v22.8c0,1.4,0.9,2.2,2.2,2.2 c1.3,0,2.5-0.9,3.9-1.9V10.1H143.7z"/>
        <path fill="#fff" d="M161.7,39.5V16.7c0-1.5-0.9-2.2-2.2-2.2c-1.3,0-2.5,0.9-3.9,1.9v23.1h-6V10.1h5.8v3c2.6-2.2,3.9-3.5,6.8-3.5 c3.1,0,4,1.1,5.4,3.5c3-2.8,4.6-3.5,6.8-3.5c3.8,0,5.7,2.4,5.7,6.2v23.8h-6.1V16.7c0-1.5-1-2.2-2.2-2.2c-1.3,0-2.5,0.9-3.8,1.9 v23.1H161.7z"/>
    </g>
    <g>
        <radialGradient id="iri-gradient" cx="-1.7778" cy="1084.2222" r="41.1111" gradientTransform="matrix(1 0 0 1 0 -1042)" gradientUnits="userSpaceOnUse">
            <stop class="iri-start-gradient" offset="0"/>
            <stop class="iri-stop-gradient" offset="1"/>
        </radialGradient>
        <polygon opacity="0.5" fill="url(#iri-gradient)" points="0,0 34.6,20 0,40 	"/>
        <path fill="url(#iri-gradient)" d="M0,0v40l34.6-20L0,0z M6.7,11.6L21.3,20 L6.7,28.4V11.6z"/>
        <style type="text/css"><![CDATA[
            .iri-start-gradient {
                animation : breatheStartEffect 5s linear infinite;
            }

            .iri-stop-gradient {
                animation : breatheStopEffect 5s linear infinite;
            }

            @keyframes breatheStartEffect {
                0% {
                    stop-color : #0ff;
                }
                50% {
                    stop-color : #fff;
                }
                100% {
                    stop-color : #0ff;
                }
            }

            @keyframes breatheStopEffect {
                0% {
                    stop-color : #f0f;
                }
                50% {
                    stop-color : #fff;
                }
                100% {
                    stop-color : #f0f;
                }
            }
        ]]></style>
    </g>
</svg>
